<svg xmlns="http://www.w3.org/2000/svg" width="336.5" height="85" viewBox="0 0 336.5 85"><path fill="#17A7EF" d="M104.33 13.302c7.727.137 7.522 9.22 7.522 9.22H96.3c0-.59.1-9.357 8.03-9.22m1.473 20.908c-8.793-.09-9.504-6.348-9.656-8.627v-.867H114.8v-1.232c0-2.56-.51-12.418-10.57-12.375-9.86.048-11.132 9.04-11.132 13.013 0 3.74.865 12.46 12.604 12.46 2.676 0 4.698-.493 6.02-.958V33.29c-1.337.498-3.286.963-5.92.92"/><path fill="#17A7EF" d="M93.55 4.856c-2.134 0-2.954 1.46-2.954 3.744v3.15h5.21l-.507 2.1h-4.655V36.4H87.85V8.83c0-3.7 1.633-6.257 5.547-6.257 1.68 0 2.39.55 2.39.55l.303 2.374c-.002 0-.815-.64-2.54-.64M82.412 11.704h2.844v24.7h-2.844zM77.08 2.712h2.793v33.69H77.08zM68.357 36.4V20.834c0-4.656-1.475-7.348-7.065-7.348-2.133 0-4.472.318-6.605.867v22.05H51.84V2.756h2.847v9.223c2.086-.412 4.22-.822 6.558-.822 7.268 0 9.907 2.83 9.907 9.355v15.89l-2.795-.002zM47.533 26.772c0 4.885-2.44 7.258-6.763 7.258-5.487 0-7.928-4.016-7.928-9.86-.05-5.612 2.645-10.546 8.64-10.546 1.932 0 4.065.23 6.05.822v12.326zM41.28 11.435c-7.878 0-11.587 5.89-11.587 12.736 0 7.214 3.658 12.19 10.927 12.19 3.102 0 5.487-1.05 6.914-2.968v1.69c0 2.51-.41 7.53-8.898 7.67-1.852.03-3.344-.187-4.523-.495v2.35c1.267.34 2.855.61 4.68.61 8.23 0 11.384-4.11 11.384-9.222v-23.19c-2.8-.96-5.593-1.37-8.898-1.37M25.033 11.704h2.846v24.7h-2.847zM20.275 36.4V20.834c0-4.656-1.473-7.348-7.065-7.348-2.133 0-4.474.318-6.605.867v22.05H3.758V2.756h2.846v9.223c2.082-.412 4.22-.822 6.558-.822 7.266 0 9.91 2.83 9.91 9.355v15.89l-2.797-.002z"/><path fill="#FFF" d="M335.065 77.788c-2.188.905-4.102 1.392-5.71 1.392-1.57 0-2.603-.47-3.103-1.398-.5-.93-.75-2.547-.75-4.852V51.587h9.102v-3.455h-9.102V41.63l-3.836-.006-.016 31.306c0 1.922.125 3.53.367 4.82.25 1.288.897 2.413 1.96 3.378 1.056.965 2.712 1.44 4.962 1.44 2.352 0 4.382-.477 6.077-1.426l.047-.223v-3.132zM317.714 81.727h-3.853V59.462c0-3.657-.554-6.017-1.655-7.07-1.108-1.06-2.836-1.585-5.188-1.585-1.93 0-3.813.457-5.648 1.377s-3.626 2.3-5.36 4.14v25.403h-3.85v-33.65h3.85v4.28c1.695-1.67 3.484-2.927 5.376-3.772 1.89-.846 3.867-1.268 5.953-1.268 3.576 0 6.21.914 7.874 2.744 1.664 1.83 2.5 4.908 2.5 9.245v22.422zM275.27 50.62c10.632.188 10.352 12.694 10.352 12.694h-21.406c-.002-.817.138-12.88 11.053-12.694m2.03 28.776c-12.11-.125-13.086-8.73-13.297-11.873V66.33h25.672V64.63c0-3.52-.695-17.092-14.547-17.028-13.57.063-15.32 12.44-15.32 17.91 0 5.15 1.188 17.153 17.344 17.153 3.688 0 6.47-.68 8.29-1.323v-3.22c-1.838.694-4.525 1.332-8.142 1.272M257.167 81.727h-3.82V59.05c0-2.284-.25-3.975-.766-5.073-.508-1.1-1.28-1.902-2.32-2.41s-2.366-.76-3.976-.76c-1.892 0-3.625.4-5.203 1.202-1.577.805-3.227 2.07-4.944 3.805.125.89.188 1.947.188 3.172v22.74h-3.852v-22.74c0-3.318-.508-5.512-1.523-6.58-1.023-1.068-2.587-1.6-4.712-1.6-1.758 0-3.616.49-5.57 1.473-1.944.982-3.68 2.334-5.18 4.043v25.404h-3.858v-33.65h3.858v4.22c1.76-1.65 3.578-2.892 5.453-3.726 1.876-.837 3.814-1.253 5.807-1.253 2.086 0 3.827.422 5.25 1.268 1.422.846 2.516 2.104 3.28 3.773 1.734-1.67 3.556-2.928 5.438-3.773 1.89-.846 3.858-1.268 5.922-1.268 3.54 0 6.18.92 7.922 2.758 1.74 1.84 2.608 4.768 2.608 8.787v22.865zM208.253 81.727H204.4V59.462c0-3.657-.547-6.017-1.655-7.07-1.103-1.06-2.836-1.585-5.188-1.585-1.93 0-3.813.457-5.647 1.377s-3.617 2.3-5.36 4.14v25.403H182.7v-33.65h3.853v4.28c1.696-1.67 3.493-2.927 5.376-3.772 1.89-.846 3.875-1.268 5.953-1.268 3.585 0 6.21.914 7.874 2.744 1.664 1.83 2.5 4.908 2.5 9.245v22.422zM173.84 47.27h3.937v34.457h-3.938zM165.283 74.844v-11.29c-6.212 2.05-9.996 3.328-11.345 3.837-1.344.51-2.516 1.25-3.516 2.222-.996.97-1.496 2.303-1.496 3.994 0 1.863.47 3.258 1.402 4.188.933.93 2.344 1.395 4.23 1.395 1.76 0 3.534-.36 5.315-1.08 1.783-.72 3.59-1.805 5.41-3.266m0 6.883V78.08c-1.76 1.48-3.57 2.59-5.423 3.327-1.858.742-3.762 1.11-5.715 1.11-2.944 0-5.237-.76-6.87-2.282-1.638-1.523-2.45-3.734-2.45-6.63 0-1.606.376-3.026 1.13-4.266.754-1.236 1.897-2.337 3.434-3.298 1.538-.963 3.624-1.867 6.253-2.713l9.642-3.107V57.94c0-2.558-.61-4.385-1.845-5.484-1.233-1.102-3.414-1.648-6.555-1.648-3.266 0-6.48.695-9.64 2.092l.982-4.44c2.355-.758 5.22-1.142 8.594-1.142 4.48 0 7.65.896 9.518 2.68 1.867 1.788 2.797 4.438 2.797 7.943V81.73h-3.852zM144.03 77.788c-2.19.905-4.105 1.392-5.716 1.392-1.57 0-2.602-.47-3.102-1.398-.496-.93-.746-2.547-.746-4.852V51.587h9.098v-3.455h-9.098V41.63l-3.836-.006-.017 31.306c0 1.922.12 3.53.367 4.82.242 1.288.896 2.413 1.957 3.378 1.063.965 2.715 1.44 4.965 1.44 2.355 0 4.38-.477 6.078-1.426l.047-.223.002-3.132zM127.21 50.995c-1.106-.084-2.177-.127-3.22-.127-.78 0-1.52.067-2.207.204-.69.138-1.375.37-2.056.7-.68.327-1.348.774-2.004 1.346s-1.492 1.512-2.496 2.823c-1.012 1.313-1.512 2.137-1.512 2.475v23.312h-3.853v-33.65h3.853v5.2c1.293-2.053 2.75-3.56 4.37-4.52 1.626-.963 3.595-1.443 5.902-1.443 1.212 0 2.242.043 3.09.127l.132 3.555zM93.23 50.62c10.632.188 10.352 12.694 10.352 12.694H82.174c0-.817.14-12.88 11.055-12.694m2.026 28.776c-12.103-.125-13.082-8.73-13.29-11.873V66.33h25.673V64.63c0-3.52-.704-17.092-14.556-17.028-13.568.063-15.318 12.44-15.318 17.91 0 5.15 1.19 17.153 17.35 17.153 3.685 0 6.466-.68 8.28-1.323v-3.22c-1.832.694-4.515 1.332-8.14 1.272M77.91 77.788c-2.19.905-4.104 1.392-5.714 1.392-1.567 0-2.602-.47-3.102-1.398-.496-.93-.746-2.547-.746-4.852V51.587h9.098v-3.455H68.35V41.63l-3.836-.006-.016 31.306c0 1.922.123 3.53.366 4.82.242 1.288.896 2.413 1.955 3.378 1.062.965 2.713 1.44 4.967 1.44 2.354 0 4.38-.477 6.078-1.426l.045-.223v-3.132zM60.793 81.727h-3.85V59.462c0-3.657-.554-6.017-1.656-7.07-1.103-1.06-2.832-1.585-5.188-1.585-1.93 0-3.812.457-5.647 1.377-1.834.92-3.623 2.3-5.36 4.14v25.403H35.24v-33.65h3.852v4.28c1.697-1.67 3.488-2.927 5.38-3.772 1.886-.846 3.866-1.268 5.948-1.268 3.582 0 6.21.914 7.875 2.744 1.664 1.83 2.498 4.908 2.498 9.245v22.422zM17.95 50.62c10.636.188 10.353 12.694 10.353 12.694H6.9c0-.817.137-12.88 11.05-12.694m2.03 28.776C7.877 79.27 6.9 70.666 6.69 67.523V66.33h25.67V64.63c0-3.52-.7-17.092-14.55-17.028-13.57.063-15.318 12.44-15.318 17.91 0 5.15 1.188 17.153 17.348 17.153 3.686 0 6.467-.68 8.283-1.323v-3.22c-1.836.694-4.52 1.332-8.143 1.272"/></svg>